<svg width="546" height="877" viewBox="0 0 546 877" fill="none" xmlns="http://www.w3.org/2000/svg">
<rect width="546" height="878" fill="#F5F5F5"/>
<path d="M240.536 369.036L239.298 370.273L240.536 369.036ZM182.667 320.5C182.667 325.655 186.845 329.833 192 329.833C197.155 329.833 201.333 325.655 201.333 320.5C201.333 315.345 197.155 311.167 192 311.167C186.845 311.167 182.667 315.345 182.667 320.5ZM186.167 349C186.167 354.155 190.345 358.333 195.5 358.333C200.655 358.333 204.833 354.155 204.833 349C204.833 343.845 200.655 339.667 195.5 339.667C190.345 339.667 186.167 343.845 186.167 349ZM195.167 384C195.167 389.155 199.345 393.333 204.5 393.333C209.655 393.333 213.833 389.155 213.833 384C213.833 378.845 209.655 374.667 204.5 374.667C199.345 374.667 195.167 378.845 195.167 384ZM240.25 518.5C240.25 519.466 241.034 520.25 242 520.25C242.966 520.25 243.75 519.466 243.75 518.5H240.25ZM261.25 538.5C261.25 539.466 262.034 540.25 263 540.25C263.966 540.25 264.75 539.466 264.75 538.5H261.25ZM182.667 293.5C182.667 298.655 186.845 302.833 192 302.833C197.155 302.833 201.333 298.655 201.333 293.5C201.333 288.345 197.155 284.167 192 284.167C186.845 284.167 182.667 288.345 182.667 293.5ZM280.167 270C280.167 275.155 284.345 279.333 289.5 279.333C294.655 279.333 298.833 275.155 298.833 270C298.833 264.845 294.655 260.667 289.5 260.667C284.345 260.667 280.167 264.845 280.167 270ZM201.167 274C201.167 279.155 205.345 283.333 210.5 283.333C215.655 283.333 219.833 279.155 219.833 274C219.833 268.845 215.655 264.667 210.5 264.667C205.345 264.667 201.167 268.845 201.167 274ZM232.167 269C232.167 274.155 236.345 278.333 241.5 278.333C246.655 278.333 250.833 274.155 250.833 269C250.833 263.845 246.655 259.667 241.5 259.667C236.345 259.667 232.167 263.845 232.167 269ZM281.75 539C281.75 539.966 282.534 540.75 283.5 540.75C284.466 540.75 285.25 539.966 285.25 539H281.75ZM284.964 303.536L283.727 302.298L284.964 303.536ZM301.167 278C301.167 283.155 305.345 287.333 310.5 287.333C315.655 287.333 319.833 283.155 319.833 278C319.833 272.845 315.655 268.667 310.5 268.667C305.345 268.667 301.167 272.845 301.167 278ZM244.667 332C244.667 337.155 248.845 341.333 254 341.333C259.155 341.333 263.333 337.155 263.333 332C263.333 326.845 259.155 322.667 254 322.667C248.845 322.667 244.667 326.845 244.667 332ZM345.667 320.5C345.667 325.655 349.845 329.833 355 329.833C360.155 329.833 364.333 325.655 364.333 320.5C364.333 315.345 360.155 311.167 355 311.167C349.845 311.167 345.667 315.345 345.667 320.5ZM342.167 349C342.167 354.155 346.345 358.333 351.5 358.333C356.655 358.333 360.833 354.155 360.833 349C360.833 343.845 356.655 339.667 351.5 339.667C346.345 339.667 342.167 343.845 342.167 349ZM332.167 383.5C332.167 388.655 336.345 392.833 341.5 392.833C346.655 392.833 350.833 388.655 350.833 383.5C350.833 378.345 346.655 374.167 341.5 374.167C336.345 374.167 332.167 378.345 332.167 383.5ZM298.667 342.5C298.667 347.655 302.845 351.833 308 351.833C313.155 351.833 317.333 347.655 317.333 342.5C317.333 337.345 313.155 333.167 308 333.167C302.845 333.167 298.667 337.345 298.667 342.5ZM294.667 310C294.667 315.155 298.845 319.333 304 319.333C309.155 319.333 313.333 315.155 313.333 310C313.333 304.845 309.155 300.667 304 300.667C298.845 300.667 294.667 304.845 294.667 310ZM329.167 296.5C329.167 301.655 333.345 305.833 338.5 305.833C343.655 305.833 347.833 301.655 347.833 296.5C347.833 291.345 343.655 287.167 338.5 287.167C333.345 287.167 329.167 291.345 329.167 296.5ZM303.25 518.5C303.25 519.466 304.034 520.25 305 520.25C305.966 520.25 306.75 519.466 306.75 518.5H303.25ZM241.773 367.798L193.237 319.263L190.763 321.737L239.298 370.273L241.773 367.798ZM239.298 370.273C239.908 370.882 240.25 371.709 240.25 372.571H243.75C243.75 370.781 243.039 369.064 241.773 367.798L239.298 370.273ZM243.231 393.756L196.731 347.756L194.269 350.244L240.769 396.244L243.231 393.756ZM242.737 419.763L205.737 382.763L203.263 385.237L240.263 422.237L242.737 419.763ZM243.75 518.5V395H240.25V518.5H243.75ZM243.75 395V372.571H240.25V395H243.75ZM264.75 538.5V366.571H261.25V538.5H264.75ZM262.773 361.798L193.237 292.263L190.763 294.737L260.298 364.273L262.773 361.798ZM264.75 366.571C264.75 364.781 264.039 363.064 262.773 361.798L260.298 364.273C260.908 364.882 261.25 365.709 261.25 366.571H264.75ZM231.237 330.737L267.237 294.737L264.763 292.263L228.763 328.263L231.237 330.737ZM267.237 294.737L290.737 271.237L288.263 268.763L264.763 292.263L267.237 294.737ZM248.237 309.263L211.737 272.763L209.263 275.237L245.763 311.737L248.237 309.263ZM267.237 292.263L242.737 267.763L240.263 270.237L264.763 294.737L267.237 292.263ZM285.25 539V361.5H281.75V539H285.25ZM285.25 361.5V307.071H281.75V361.5H285.25ZM286.202 304.773L311.737 279.237L309.263 276.763L283.727 302.298L286.202 304.773ZM285.25 307.071C285.25 306.209 285.592 305.382 286.202 304.773L283.727 302.298C282.461 303.564 281.75 305.281 281.75 307.071H285.25ZM284.737 360.263L255.237 330.763L252.763 333.237L282.263 362.737L284.737 360.263ZM307.702 370.273L356.237 321.737L353.763 319.263L305.227 367.798L307.702 370.273ZM305.227 367.798C303.961 369.064 303.25 370.781 303.25 372.571H306.75C306.75 371.709 307.092 370.882 307.702 370.273L305.227 367.798ZM306.231 396.244L352.731 350.244L350.269 347.756L303.769 393.756L306.231 396.244ZM305.737 421.737L306.237 421.237L303.763 418.763L303.263 419.263L305.737 421.737ZM306.237 421.237L342.737 384.737L340.263 382.263L303.763 418.763L306.237 421.237ZM321.237 353.263L309.237 341.263L306.763 343.737L318.763 355.737L321.237 353.263ZM335.737 339.263L315.737 319.263L313.263 321.737L333.263 341.737L335.737 339.263ZM315.737 319.263L305.237 308.763L302.763 311.237L313.263 321.737L315.737 319.263ZM315.737 321.737L339.737 297.737L337.263 295.263L313.263 319.263L315.737 321.737ZM306.75 518.5V420H303.25V518.5H306.75ZM306.75 420V395H303.25V420H306.75ZM306.75 395V372.571H303.25V395H306.75Z" fill="#121212"/>
<path d="M202.209 553.723H213.336C215.762 553.723 217.713 554.426 219.189 555.832C220.666 557.238 221.404 559.102 221.404 561.422C221.404 563.76 220.666 565.623 219.189 567.029C217.713 568.436 215.762 569.139 213.336 569.139H206.709V579H202.209V553.723ZM206.709 565.5H212.545C215.516 565.5 216.781 564.252 216.781 561.422C216.781 558.609 215.516 557.361 212.545 557.361H206.709V565.5ZM234.536 560.033C235.186 560.033 235.714 560.139 236.153 560.35V564.059H233.71C230.739 564.059 228.858 565.887 228.858 568.998V579H224.639V560.561H228.665V564.885C229.21 563.391 230.001 562.213 231.038 561.334C232.075 560.473 233.235 560.033 234.536 560.033ZM253.099 576.855C251.359 578.648 249.056 579.545 246.208 579.545C243.343 579.545 241.058 578.648 239.318 576.855C237.578 575.08 236.699 572.725 236.699 569.789C236.699 566.854 237.578 564.498 239.318 562.705C241.058 560.93 243.343 560.033 246.208 560.033C249.056 560.033 251.359 560.93 253.099 562.705C254.839 564.498 255.701 566.854 255.701 569.789C255.701 572.725 254.839 575.08 253.099 576.855ZM242.324 574.658C243.132 575.678 244.433 576.188 246.208 576.188C247.984 576.188 249.267 575.678 250.076 574.658C250.867 573.639 251.271 572.004 251.271 569.771C251.271 567.539 250.867 565.922 250.076 564.902C249.267 563.883 247.984 563.373 246.208 563.373C244.433 563.373 243.132 563.883 242.324 564.902C241.515 565.922 241.111 567.539 241.111 569.771C241.111 572.004 241.515 573.639 242.324 574.658ZM263.173 553.723H285.602V557.467H276.638V579H272.138V557.467H263.173V553.723ZM302.636 568.488V570.686H289.013C289.207 574.535 290.701 576.223 293.953 576.223C296.976 576.223 298.277 575.273 298.277 573.164H302.513C302.513 575.062 301.722 576.592 300.123 577.77C298.523 578.947 296.449 579.545 293.882 579.545C291.088 579.545 288.838 578.648 287.132 576.855C285.427 575.08 284.566 572.725 284.566 569.789C284.566 566.854 285.427 564.498 287.132 562.705C288.838 560.93 291.088 560.033 293.882 560.033C296.502 560.033 298.611 560.807 300.228 562.354C301.828 563.9 302.636 565.939 302.636 568.488ZM289.066 568.084L293.091 568.014H298.347C298.154 564.762 296.818 563.338 293.882 563.338C290.912 563.338 289.4 564.779 289.066 568.084ZM319.319 572.637H323.555C323.555 574.693 322.782 576.363 321.235 577.629C319.688 578.912 317.649 579.545 315.1 579.545C312.287 579.545 310.02 578.648 308.315 576.855C306.61 575.08 305.748 572.725 305.748 569.789C305.748 566.854 306.61 564.498 308.315 562.705C310.02 560.93 312.287 560.033 315.1 560.033C317.614 560.033 319.635 560.701 321.164 562.037C322.694 563.391 323.45 565.148 323.45 567.328H319.196C319.196 564.533 318.035 563.373 315.1 563.373C311.655 563.373 310.16 565.307 310.16 569.771C310.16 574.236 311.655 576.188 315.1 576.188C318.071 576.188 319.319 575.115 319.319 572.637ZM338.462 560.033C340.554 560.033 342.206 560.631 343.454 561.844C344.685 563.057 345.3 564.709 345.3 566.766V579H341.046V568.453C341.046 566.643 340.747 565.377 340.132 564.656C339.517 563.936 338.444 563.584 336.897 563.584C335.315 563.584 334.067 564.023 333.153 564.92C332.222 565.816 331.765 567.029 331.765 568.594V579H327.546V551.754H331.765V564.199C333.224 561.422 335.456 560.033 338.462 560.033Z" fill="#121212"/>
<path d="M236.778 594.364H238.909L242.614 603.409H242.75L246.455 594.364H248.585V606H246.915V597.58H246.807L243.375 605.983H241.989L238.557 597.574H238.449V606H236.778V594.364ZM255.801 606V597.273H257.5V606H255.801ZM256.659 595.926C256.364 595.926 256.11 595.828 255.898 595.631C255.69 595.43 255.586 595.191 255.586 594.915C255.586 594.634 255.69 594.396 255.898 594.199C256.11 593.998 256.364 593.898 256.659 593.898C256.955 593.898 257.207 593.998 257.415 594.199C257.627 594.396 257.733 594.634 257.733 594.915C257.733 595.191 257.627 595.43 257.415 595.631C257.207 595.828 256.955 595.926 256.659 595.926ZM266.285 600.818V606H264.586V597.273H266.216V598.693H266.324C266.525 598.231 266.84 597.86 267.268 597.58C267.699 597.299 268.243 597.159 268.898 597.159C269.493 597.159 270.014 597.284 270.461 597.534C270.908 597.78 271.254 598.148 271.501 598.636C271.747 599.125 271.87 599.729 271.87 600.449V606H270.171V600.653C270.171 600.021 270.006 599.527 269.677 599.17C269.347 598.811 268.895 598.631 268.319 598.631C267.925 598.631 267.574 598.716 267.268 598.886C266.965 599.057 266.724 599.307 266.546 599.636C266.372 599.962 266.285 600.356 266.285 600.818ZM282.607 609.455C281.914 609.455 281.318 609.364 280.818 609.182C280.321 609 279.916 608.759 279.602 608.46C279.287 608.161 279.052 607.833 278.897 607.477L280.357 606.875C280.46 607.042 280.596 607.218 280.766 607.403C280.941 607.593 281.176 607.754 281.471 607.886C281.77 608.019 282.155 608.085 282.624 608.085C283.268 608.085 283.801 607.928 284.221 607.614C284.641 607.303 284.852 606.807 284.852 606.125V604.409H284.744C284.641 604.595 284.494 604.801 284.301 605.028C284.111 605.256 283.85 605.453 283.516 605.619C283.183 605.786 282.749 605.869 282.215 605.869C281.526 605.869 280.905 605.708 280.352 605.386C279.802 605.061 279.367 604.581 279.045 603.949C278.727 603.312 278.568 602.53 278.568 601.602C278.568 600.674 278.725 599.879 279.039 599.216C279.357 598.553 279.793 598.045 280.346 597.693C280.899 597.337 281.526 597.159 282.227 597.159C282.768 597.159 283.206 597.25 283.539 597.432C283.873 597.61 284.132 597.818 284.318 598.057C284.507 598.295 284.653 598.506 284.755 598.688H284.88V597.273H286.545V606.193C286.545 606.943 286.371 607.559 286.022 608.04C285.674 608.521 285.202 608.877 284.607 609.108C284.016 609.339 283.35 609.455 282.607 609.455ZM282.59 604.46C283.079 604.46 283.492 604.347 283.829 604.119C284.17 603.888 284.427 603.559 284.602 603.131C284.78 602.699 284.869 602.182 284.869 601.58C284.869 600.992 284.782 600.475 284.607 600.028C284.433 599.581 284.177 599.233 283.84 598.983C283.503 598.729 283.087 598.602 282.59 598.602C282.079 598.602 281.653 598.735 281.312 599C280.971 599.261 280.713 599.617 280.539 600.068C280.369 600.519 280.284 601.023 280.284 601.58C280.284 602.152 280.371 602.653 280.545 603.085C280.719 603.517 280.977 603.854 281.318 604.097C281.662 604.339 282.087 604.46 282.59 604.46ZM295.322 594.364V606H293.623V594.364H295.322ZM306.169 606.176C305.309 606.176 304.569 605.992 303.947 605.625C303.33 605.254 302.853 604.733 302.516 604.062C302.182 603.388 302.016 602.598 302.016 601.693C302.016 600.799 302.182 600.011 302.516 599.33C302.853 598.648 303.322 598.116 303.925 597.733C304.531 597.35 305.239 597.159 306.05 597.159C306.542 597.159 307.019 597.241 307.482 597.403C307.944 597.566 308.358 597.822 308.726 598.17C309.093 598.519 309.383 598.972 309.595 599.528C309.807 600.081 309.913 600.754 309.913 601.545V602.148H302.976V600.875H308.249C308.249 600.428 308.158 600.032 307.976 599.688C307.794 599.339 307.538 599.064 307.209 598.864C306.883 598.663 306.5 598.562 306.061 598.562C305.584 598.562 305.167 598.68 304.811 598.915C304.459 599.146 304.186 599.449 303.993 599.824C303.804 600.195 303.709 600.598 303.709 601.034V602.028C303.709 602.612 303.811 603.108 304.016 603.517C304.224 603.926 304.514 604.239 304.885 604.455C305.256 604.667 305.69 604.773 306.186 604.773C306.508 604.773 306.802 604.727 307.067 604.636C307.332 604.542 307.561 604.402 307.754 604.216C307.947 604.03 308.095 603.801 308.197 603.528L309.805 603.818C309.677 604.292 309.446 604.706 309.112 605.062C308.783 605.415 308.368 605.689 307.868 605.886C307.372 606.08 306.805 606.176 306.169 606.176Z" fill="#121212"/>
</svg>
