<svg width="32" height="32" viewBox="0 0 32 32" fill="none" xmlns="http://www.w3.org/2000/svg">
<path fill-rule="evenodd" clip-rule="evenodd" d="M17.3338 4.00008C17.3338 3.2637 16.7368 2.66675 16.0004 2.66675C15.264 2.66675 14.6671 3.2637 14.6671 4.00008V4.76124C10.1443 5.40798 6.66709 9.29639 6.66709 13.9986L6.66709 19.3325C6.66709 19.3325 6.66711 19.3323 6.66709 19.3325C6.66697 19.3351 6.66606 19.3529 6.66028 19.3879C6.65334 19.4299 6.64101 19.487 6.62067 19.5605C6.57944 19.7094 6.51381 19.8948 6.42212 20.1141C6.2383 20.5536 5.97915 21.0596 5.69255 21.5702C5.15369 22.5301 4.88207 23.674 5.08598 24.7617C5.30103 25.9089 6.03942 26.9093 7.30051 27.3894C8.42705 27.8184 9.9266 28.2106 11.9069 28.4441C11.954 28.485 12.0097 28.5317 12.0738 28.5829C12.2741 28.7432 12.5604 28.951 12.9222 29.1577C13.6403 29.5681 14.7021 30.0001 16.0004 30.0001C17.2988 30.0001 18.3605 29.5681 19.0786 29.1577C19.4404 28.951 19.7267 28.7432 19.9271 28.5829C19.9911 28.5317 20.0468 28.485 20.0939 28.4441C22.0743 28.2106 23.5738 27.8184 24.7003 27.3894C25.9614 26.9093 26.6998 25.9089 26.9149 24.7617C27.1188 23.674 26.8472 22.5301 26.3083 21.5702C26.0217 21.0596 25.7626 20.5536 25.5787 20.1141C25.4871 19.8948 25.4214 19.7094 25.3802 19.5605C25.3598 19.487 25.3475 19.4299 25.3406 19.3879C25.3348 19.3529 25.3339 19.3354 25.3338 19.3328C25.3338 19.3326 25.3338 19.3328 25.3338 19.3328L25.3338 19.3216V13.9993C25.3338 9.29715 21.8567 5.4081 17.3338 4.76125V4.00008ZM9.33376 13.9986C9.33376 10.317 12.3182 7.33342 16.0004 7.33342C19.6825 7.33342 22.6671 10.3175 22.6671 13.9993V19.3334C22.6671 19.9507 22.8984 20.6164 23.1185 21.1429C23.3577 21.7149 23.6712 22.3201 23.983 22.8755C24.2861 23.4156 24.3584 23.9259 24.2939 24.2704C24.2404 24.5555 24.0979 24.7654 23.7514 24.8973C22.3183 25.443 19.899 26.0001 16.0004 26.0001C12.1019 26.0001 9.68257 25.443 8.24942 24.8973C7.90294 24.7654 7.76044 24.5555 7.70699 24.2704C7.64242 23.9259 7.71471 23.4156 8.01788 22.8755C8.32967 22.3201 8.64313 21.7149 8.88232 21.1429C9.10249 20.6164 9.33376 19.9507 9.33376 19.3334V13.9986Z" fill="black"/>
</svg>
